<?xml version="1.0" encoding="utf-8"?>
<!-- Generator: Adobe Illustrator 21.1.0, SVG Export Plug-In . SVG Version: 6.00 Build 0)  -->
<svg version="1.1" id="Layer_1" xmlns="http://www.w3.org/2000/svg" xmlns:xlink="http://www.w3.org/1999/xlink" x="0px" y="0px"
	 viewBox="0 0 528 90" style="enable-background:new 0 0 528 90;" xml:space="preserve">
<style type="text/css">
	.st0{fill:#808285;}
	.st1{fill:#F68B1F;}
	.st2{fill:#465882;}
	.st3{fill:#3865A5;}
	.st4{fill:#234475;}
	.st5{fill:#20468C;}
	.st6{fill:#00346B;}
	.st7{fill:#545555;}
</style>
<path class="st0" d="M2.9,72.4V35.5v20.8v0.1l12.6,8L2.9,72.4 M44.6,45.9L16.7,28.2l-1.1-0.7l34.6-22v36.9L44.6,45.9"/>
<path class="st1" d="M50.2,86.3l-34.6-22l29-18.4l5.6,3.5V86.3 M2.9,35.5V19.4l12.6,8l0,0l0,0L2.9,35.5L2.9,35.5"/>
<polyline class="st2" points="16.7,28.2 15.6,27.5 15.6,27.5 16.7,28.2 "/>
<path class="st3" d="M15.6,64.4L15.6,64.4L15.6,64.4L15.6,64.4L15.6,64.4 M44.6,45.9L44.6,45.9L44.6,45.9L44.6,45.9L44.6,45.9"/>
<path class="st4" d="M15.6,64.3l-12.6-8v-0.1L15.6,64.3L15.6,64.3 M44.6,45.9L16.7,28.2L44.6,45.9L44.6,45.9"/>
<path class="st5" d="M15.6,64.3L15.6,64.3l29-18.4l0,0L15.6,64.3 M2.9,35.5L2.9,35.5l12.6-8l0,0L2.9,35.5"/>
<polyline class="st6" points="15.6,64.3 2.9,56.3 2.9,35.5 15.6,27.5 16.7,28.2 44.6,45.9 15.6,64.3 "/>
<polygon class="st6" points="72.2,86.3 131.3,86.3 131.3,69.9 95.2,69.9 95.2,51.8 124.2,51.8 124.2,35.5 95.2,35.5 95.2,21.9 
	131.3,21.9 131.3,5.5 72.2,5.5 72.2,86.3 "/>
<path class="st6" d="M147.2,86.3h19.7V42.3c0-1.9-0.6-8.1-0.6-8.6c0.3,0.9,2.3,6.7,3.1,8.6l19.1,44.1h13.6l19.1-44.1l3.1-8.6
	c-0.1,0.5-0.6,6.7-0.6,8.6v44.1h20.3V5.5h-25.1L196,56.8L172.9,5.5h-25.7V86.3L147.2,86.3z"/>
<polygon class="st6" points="262.7,86.3 285.7,86.3 285.7,5.5 262.7,5.5 262.7,86.3 "/>
<path class="st7" d="M329.1,29.8v-3.5h-10v-6.5h8.1v-3.5h-8.1V11h10V7.5h-14.5v22.3H329.1L329.1,29.8z M348.9,29.8v-3.1h-8.7V10.4
	h-3.9v19.3H348.9L348.9,29.8z M366.8,29.8v-3.1h-8.7v-5.6h7.1V18h-7.1v-4.5h8.7v-3.1h-12.6v19.3H366.8L366.8,29.8z M388.8,28.2v-3.6
	c-1.5,1.4-3.6,2.4-6.3,2.4c-3.8,0-6.7-2.6-6.7-6.9c0-4.3,2.8-6.9,6.7-6.9c2.7,0,4.8,1,6.3,2.4V12c-1.6-1.2-4.2-2-6.7-2
	c-5.6,0-10.4,3.8-10.4,10.1c0,6.2,4.8,10.1,10.4,10.1C384.6,30.2,387.2,29.4,388.8,28.2L388.8,28.2z M410.3,13.5v-3.1h-17v3.1h6.5
	v16.3h3.9V13.5H410.3L410.3,13.5z M425.9,21.6c2.5-0.7,3.9-2.8,3.9-5.4c0-3.1-2-5.8-6.5-5.8h-7.6v19.3h3.9v-7.7h2.4l5.3,7.7h4.3
	L425.9,21.6L425.9,21.6z M419.5,13.2h3c2.4,0,3.3,1.3,3.3,3.1c0,1.7-0.9,3-3.3,3h-3V13.2L419.5,13.2z M441,29.8V10.4h-3.9v19.3H441
	L441,29.8z M464.3,28.2v-3.6c-1.5,1.4-3.6,2.4-6.3,2.4c-3.8,0-6.7-2.6-6.7-6.9c0-4.3,2.8-6.9,6.7-6.9c2.7,0,4.8,1,6.3,2.4V12
	c-1.6-1.2-4.2-2-6.7-2c-5.6,0-10.4,3.8-10.4,10.1c0,6.2,4.8,10.1,10.4,10.1C460.1,30.2,462.6,29.4,464.3,28.2L464.3,28.2z
	 M474.5,29.8V10.4h-3.9v19.3H474.5L474.5,29.8z M496.8,13.5v-3.1h-17v3.1h6.5v16.3h3.9V13.5H496.8L496.8,13.5z M519.1,10.4h-4.2
	l-5.3,8.4l-5.3-8.4H500l7.6,11.6v7.7h3.9V22L519.1,10.4L519.1,10.4z"/>
<path class="st7" d="M334.4,61.6L325.6,41h-3.3l-8.8,20.7h4.1l2.1-5.1h8.4l2.1,5.1H334.4L334.4,61.6z M327,53.6h-6.1l3.1-7.5
	L327,53.6L327,53.6z M357.5,52.7V42.3h-3.8v10.2c0,4.2-1.8,6.2-4.9,6.2c-3.1,0-4.9-2-4.9-6.2V42.3h-4v10.4c0,6.5,3.8,9.4,8.9,9.4
	S357.5,59.2,357.5,52.7L357.5,52.7z M379.8,45.4v-3.1h-17v3.1h6.5v16.2h3.9V45.4H379.8L379.8,45.4z M402,61.6V42.3h-3.9v7.5H389
	v-7.5h-3.9v19.3h3.9v-8.5h9.1v8.5H402L402,61.6z M429,52c0-5.9-4.5-10.2-10.4-10.2c-5.9,0-10.5,4.3-10.5,10.2
	c0,5.9,4.6,10.2,10.5,10.2C424.5,62.2,429,57.9,429,52L429,52z M424.9,52c0,4.2-2.5,7.1-6.3,7.1c-3.9,0-6.4-2.9-6.4-7.1
	c0-4.2,2.5-7.1,6.4-7.1C422.4,44.9,424.9,47.8,424.9,52L424.9,52z M445.4,53.5c2.5-0.7,3.9-2.8,3.9-5.4c0-3.1-2-5.8-6.5-5.8h-7.6
	v19.3h3.9v-7.7h2.4l5.3,7.7h4.3L445.4,53.5L445.4,53.5z M439.1,45.1h3c2.4,0,3.3,1.3,3.3,3.1c0,1.7-0.9,3-3.3,3h-3V45.1L439.1,45.1z
	 M460.5,61.6V42.3h-3.9v19.3H460.5L460.5,61.6z M482.7,45.4v-3.1h-17v3.1h6.5v16.2h3.9V45.4H482.7L482.7,45.4z M505,42.3h-4.1
	l-5.3,8.4l-5.3-8.4h-4.3l7.5,11.6v7.7h3.9v-7.7L505,42.3L505,42.3z"/>
<path class="st0" d="M318.1,86h2.9v-8.7h3.5v-2.2h-9.9v2.2h3.5V86L318.1,86z M329.1,86h7.6v-2.2h-4.6v-2.4h3.7v-2.2h-3.7v-1.8h4.6
	v-2.2h-7.6V86L329.1,86z M348.4,86h2.5v-5.9c0-0.3-0.1-1.1-0.1-1.2c0,0.1,0.3,0.9,0.4,1.2l2.4,5.9h1.7l2.4-5.9l0.4-1.2
	c0,0.1-0.1,0.9-0.1,1.2V86h2.6V75.1h-3.2l-3,6.9l-3-6.9h-3.3V86L348.4,86z M365,86h2.8l0.9-2.3h4l0.9,2.3h2.9l-4.6-10.9h-2.5L365,86
	L365,86z M369.5,81.8l1.3-3.4l1.3,3.4H369.5L369.5,81.8z M381.2,86h2.6v-6.3l4.9,6.3h2.2V75.1h-2.6v6.3l-4.9-6.3h-2.2V86L381.2,86z
	 M395.5,86h2.8l0.9-2.3h4l0.9,2.3h2.9l-4.6-10.9h-2.5L395.5,86L395.5,86z M400,81.8l1.3-3.4l1.3,3.4H400L400,81.8z M418.1,86h2.9
	v-4.5h4.3V86h2.9V75.1h-2.9V79h-4.3v-3.9h-2.9V86L418.1,86z M433.9,86h2.9V75.1h-2.9V86L433.9,86z M442.5,86h2.9v-3.6l0.8-0.8
	l3.7,4.4h3.5l-5.1-6.1l4.4-4.8h-3.1l-4,4.5v-4.5h-2.9V86L442.5,86z M461.5,86.3c3.3,0,6-2.4,6-5.7c0-3.3-2.7-5.7-6-5.7
	c-3.3,0-6,2.4-6,5.7C455.4,83.9,458.1,86.3,461.5,86.3L461.5,86.3z M461.5,84c-1.8,0-2.9-1.4-2.9-3.4c0-2.1,1.1-3.4,2.9-3.4
	c1.8,0,2.9,1.4,2.9,3.4C464.3,82.6,463.3,84,461.5,84L461.5,84z"/>
<polyline class="st0" points="300,5.5 300,86.3 300.7,86.3 300.7,5.5 "/>
</svg>
